<svg width="35" height="36" viewBox="0 0 35 36" fill="none" xmlns="http://www.w3.org/2000/svg">
<g clip-path="url(#clip0_1_7)">
<path d="M23.726 4.04582L25.034 3.43723C26.8961 2.57204 28.9876 4.07307 28.7628 6.11456L28.6038 7.54974C28.4539 8.91225 29.3736 10.1612 30.718 10.4246L32.135 10.7017C34.1492 11.0945 34.9599 13.5402 33.5792 15.0594L32.6073 16.1267C31.6853 17.1395 31.6944 18.6905 32.6277 19.6942L33.611 20.7502C35.0099 22.2535 34.2287 24.7083 32.2167 25.1238L30.8043 25.4168C29.4622 25.6938 28.5584 26.9542 28.7242 28.3144L28.899 29.7473C29.1465 31.7865 27.071 33.3125 25.1998 32.4678L23.885 31.8751C22.636 31.3119 21.1645 31.8001 20.4991 32.9969L19.7974 34.2572C18.8005 36.0512 16.2254 36.0671 15.2058 34.2845L14.4905 33.0309C13.8115 31.841 12.3332 31.371 11.091 31.9478L9.783 32.5563C7.9209 33.4215 5.82945 31.9205 6.05426 29.879L6.21322 28.4438C6.3631 27.0813 5.4434 25.8324 4.09906 25.5689L2.68205 25.2919C0.667804 24.899 -0.14289 22.4533 1.23779 20.9341L2.20971 19.8668C3.13168 18.854 3.12259 17.303 2.18927 16.2993L1.206 15.2434C-0.192848 13.7401 0.588324 11.2853 2.6003 10.8697L4.01277 10.5768C5.35484 10.2997 6.25864 9.03942 6.09286 7.67918L5.91801 6.24627C5.67049 4.20705 7.74604 2.68104 9.61722 3.52579L10.932 4.11849C12.181 4.68166 13.6525 4.19342 14.3179 2.99669L15.0196 1.73636C16.0165 -0.0576071 18.5916 -0.073503 19.6112 1.70911L20.3265 2.96262C21.0055 4.15255 22.4839 4.62261 23.726 4.04582Z" fill="black"/>
<path d="M11.5042 26.3978C11.3066 26.3978 11.109 26.3342 10.941 26.2025C10.5481 25.8914 10.48 25.3191 10.7911 24.9263L22.8266 9.71156C23.1377 9.3187 23.71 9.25058 24.1028 9.56169C24.4957 9.87279 24.5638 10.445 24.2527 10.8379L12.2172 26.0526C12.0378 26.2797 11.7721 26.3978 11.5042 26.3978Z" fill="white"/>
<path d="M11.9583 17.7688C9.67385 17.7688 7.81403 15.909 7.81403 13.6245C7.81403 11.3401 9.67385 9.48022 11.9583 9.48022C14.2428 9.48022 16.1026 11.3401 16.1026 13.6245C16.1026 15.909 14.2428 17.7688 11.9583 17.7688ZM11.9583 10.8427C10.4255 10.8427 9.17654 12.0917 9.17654 13.6245C9.17654 15.1573 10.4255 16.4063 11.9583 16.4063C13.4912 16.4063 14.7401 15.1573 14.7401 13.6245C14.7401 12.0917 13.4912 10.8427 11.9583 10.8427Z" fill="white"/>
<path d="M22.8587 26.6249C20.5742 26.6249 18.7144 24.7651 18.7144 22.4806C18.7144 20.1961 20.5742 18.3363 22.8587 18.3363C25.1432 18.3363 27.003 20.1961 27.003 22.4806C27.003 24.7651 25.1432 26.6249 22.8587 26.6249ZM22.8587 19.6988C21.3259 19.6988 20.0769 20.9478 20.0769 22.4806C20.0769 24.0134 21.3259 25.2624 22.8587 25.2624C24.3915 25.2624 25.6405 24.0134 25.6405 22.4806C25.6405 20.9478 24.3915 19.6988 22.8587 19.6988Z" fill="white"/>
</g>
<defs>
<clipPath id="clip0_1_7">
<rect width="33.8198" height="35.2277" fill="white" transform="translate(0.5 0.380249)"/>
</clipPath>
</defs>
</svg>
