<svg width="155" height="38" viewBox="0 0 155 38" fill="none" xmlns="http://www.w3.org/2000/svg">
<g clip-path="url(#clip0_1_22)">
<path d="M15.8972 37.2517H8.18594V8.02772H0V0.526367H10.7047H15.8972V37.2517Z" fill="#F05929"/>
<path d="M20.2081 31.6908L32.0139 20.1498C35.8954 16.3716 37.7328 14.7474 37.7328 11.8605C37.7328 9.3934 35.5305 7.55923 32.7469 7.55923C29.127 7.55923 27.238 10.2362 27.4479 14.1693H19.6301C19.2652 5.77028 24.9324 -0.000244141 32.9052 -0.000244141C40.3549 -0.000244141 45.7056 4.87903 45.7056 11.6474C45.7056 16.6849 42.3472 20.618 37.5196 25.0775L32.9019 29.6952H45.8089V37.2514H20.2081V31.6908Z" fill="#FFB826"/>
<path d="M63.0267 7.44944H48.5472V-0.000244141H73.993V5.08892L65.2839 14.0595C70.5313 14.5827 74.3095 18.9388 74.3095 24.606C74.3095 32.004 68.6423 37.2514 60.7728 37.2514C53.4813 37.2514 47.9724 32.5304 47.4977 25.8654H55.2638C55.6836 27.9127 57.5727 29.6952 60.7728 29.6952C63.9729 29.6952 66.3334 27.4929 66.3334 24.3961C66.3334 19.9883 61.2959 18.4674 55.9968 19.9883V15.0025L63.0267 7.44621V7.44944Z" fill="#00AD45"/>
<path d="M100.279 29.6143V37.2513H97.3919V30.2537C97.3919 28.3905 96.3715 27.2409 94.6859 27.2409C93.2812 27.2409 91.9023 28.1354 91.9023 30.2537V37.2513H89.0413V30.2537C89.0413 28.3647 87.995 27.2409 86.3094 27.2409C84.9306 27.2409 83.5259 28.1096 83.5259 30.2537V37.2513H80.6907V24.7641H83.5259V26.5273C84.4462 24.9966 86.0285 24.509 87.3298 24.509C89.1414 24.509 90.4202 25.2001 91.1855 26.7049C91.8991 25.3518 93.4588 24.509 95.1703 24.509C98.1831 24.509 100.279 26.4756 100.279 29.6176" fill="black"/>
<path d="M106.1 37.2513H103.265V24.7641H106.1V37.2513ZM106.533 20.7793C106.533 21.7998 105.69 22.6167 104.696 22.6167C103.701 22.6167 102.884 21.7998 102.884 20.7793C102.884 19.7589 103.701 18.9678 104.696 18.9678C105.69 18.9678 106.533 19.8106 106.533 20.7793Z" fill="black"/>
<path d="M112.101 19.3748H109.265V37.2482H112.101V19.3748Z" fill="black"/>
<path d="M126.913 30.1279V37.2514H124.052V30.4831C124.052 28.5165 122.85 27.241 121.039 27.241C119.227 27.241 117.949 28.5165 117.949 30.4831V37.2514H115.113V19.3748H117.949V26.7308C118.74 25.3261 120.067 24.5091 121.727 24.5091C124.92 24.5091 126.91 26.6533 126.91 30.1279" fill="black"/>
<path d="M139.652 30.9932C139.652 28.849 138.018 27.2151 135.848 27.2151C133.678 27.2151 132.066 28.9007 132.066 30.9932C132.066 33.0857 133.726 34.7972 135.848 34.7972C137.969 34.7972 139.652 33.1632 139.652 30.9932ZM142.513 24.7641V37.2513H139.652V35.0555C138.757 36.6119 137.227 37.5064 135.234 37.5064C131.915 37.5064 129.257 34.5937 129.257 30.9964C129.257 27.3991 131.911 24.509 135.234 24.509C137.227 24.509 138.757 25.4035 139.652 26.96V24.7641H142.513Z" fill="black"/>
<path d="M144.709 33.2407H147.441C147.544 34.3386 148.616 35.0555 150.021 35.0555C151.426 35.0555 152.217 34.4678 152.217 33.5991C152.217 30.9189 144.99 33.0889 144.99 28.3388C144.99 26.1688 146.801 24.509 149.714 24.509C152.294 24.509 154.542 25.8879 154.819 28.4163H151.958C151.829 27.5735 150.964 26.8857 149.659 26.8857C148.535 26.8857 147.744 27.3701 147.744 28.1612C147.744 30.6897 154.997 28.3647 154.997 33.5765C154.997 35.824 152.93 37.5097 150.169 37.5097C147.105 37.5097 144.961 35.9274 144.706 33.2439" fill="black"/>
</g>
<defs>
<clipPath id="clip0_1_22">
<rect width="155" height="37.5068" fill="white"/>
</clipPath>
</defs>
</svg>
